<svg xmlns="http://www.w3.org/2000/svg" width="960" height="540" viewBox="0 0 960 540" role="img" aria-labelledby="title desc">
  <title id="title">备餐前洗手与食品安全示意图</title>
  <desc id="desc">绿色厨房背景中的水流、双手和食材图形。</desc>
  <rect width="960" height="540" fill="#edf4e9"/>
  <circle cx="742" cy="124" r="92" fill="#d8ead2"/>
  <rect x="108" y="120" width="744" height="300" rx="36" fill="#fffdf7"/>
  <path d="M250 290c42-54 118-54 160 0" fill="none" stroke="#2f6b3c" stroke-width="24" stroke-linecap="round"/>
  <path d="M548 154c0 74-68 88-68 156" fill="none" stroke="#5ca06b" stroke-width="22" stroke-linecap="round"/>
  <path d="M620 154c0 74-68 88-68 156" fill="none" stroke="#5ca06b" stroke-width="22" stroke-linecap="round"/>
  <path d="M692 154c0 74-68 88-68 156" fill="none" stroke="#5ca06b" stroke-width="22" stroke-linecap="round"/>
  <circle cx="300" cy="206" r="34" fill="#f8efd8"/>
  <circle cx="380" cy="214" r="28" fill="#f8efd8"/>
  <rect x="230" y="340" width="260" height="22" rx="11" fill="#dde6d8"/>
  <rect x="528" y="340" width="202" height="22" rx="11" fill="#dde6d8"/>
</svg>
